<?xml version="1.0" encoding="utf-8"?>
<!-- Generator: Adobe Illustrator 23.0.3, SVG Export Plug-In . SVG Version: 6.00 Build 0)  -->
<svg version="1.1" id="Calque_1" xmlns="http://www.w3.org/2000/svg" xmlns:xlink="http://www.w3.org/1999/xlink" x="0px" y="0px"
	 viewBox="0 0 800 600" style="enable-background:new 0 0 800 600;" xml:space="preserve">
<style type="text/css">
	.st0{opacity:0.24;fill:#BBE3F1;enable-background:new    ;}
	.st1{fill:#F78C68;}
	.st2{fill:#D17645;}
	.st3{fill:#4D7368;}
	.st4{fill:none;stroke:#FBFAF4;stroke-width:0.685;stroke-miterlimit:10;}
	.st5{opacity:0.82;fill:#4D7368;enable-background:new    ;}
	.st6{fill:#000038;}
	.st7{opacity:0.43;fill:#000038;enable-background:new    ;}
	.st8{fill:#223666;}
	.st9{fill:#3E84C2;}
	.st10{fill:#506CA6;}
	.st11{fill:#FCF4E3;}
	.st12{fill:#ED864E;}
	.st13{fill:#10192E;}
	.st14{fill:#D34A28;}
	.st15{fill:#FFFFFF;}
	.st16{fill:#FBFBFB;stroke:#FBFBFB;stroke-width:0.2842;stroke-miterlimit:10;}
	.st17{fill:none;stroke:#FBFAF4;stroke-width:0.5;stroke-miterlimit:10;}
</style>
<g>
	<ellipse class="st0" cx="364" cy="696.3" rx="43.1" ry="7"/>
	<ellipse class="st0" cx="461.5" cy="696.3" rx="43.1" ry="7"/>
	<g>
		<g>
			<polygon class="st1" points="457.1,656.6 464.8,699.1 530,699.1 530,694 492.9,672.5 492.2,657.3 			"/>
			<polygon class="st2" points="492.9,672.5 486.3,647.9 452.2,656.8 			"/>
			<path class="st3" d="M498.9,673.7c0,0-5.6,0-30.2,4.4l-8.7-4v29l81-0.3l0,0c0.2-4.2-2.1-8.2-5.8-10.1L498.9,673.7z"/>
		</g>
	</g>
	<g>
		<polygon class="st1" points="357.4,656.6 349.7,699.1 284.4,699.1 284.4,694 321.6,672.5 322.3,657.3 		"/>
		<polygon class="st2" points="321.6,672.5 322.3,657.3 355.5,655.9 		"/>
		<path class="st3" d="M315.5,673.7c0,0,5.6,0,30.2,4.4l8.7-4v29l-81-0.3l0,0c-0.2-4.2,2.1-8.2,5.8-10.1L315.5,673.7z"/>
	</g>
	<g>
		<path class="st3" d="M457.7,278.1l36.5,380.1l-51.7,1.2L403.9,418c-3.1-9.8-14-9.6-17.5,0l-22.5,240.3l-47-1.2
			c0,0-9.3-216.1,18.9-390.9L457.7,278.1z"/>
		<line class="st4" x1="353.4" y1="321.8" x2="334.4" y2="652.3"/>
		<line class="st4" x1="468.3" y1="654.7" x2="429.4" y2="324.8"/>
		<polygon class="st5" points="324.4,362.8 473,440.4 466.4,366.7 		"/>
	</g>
	<path class="st6" d="M370.9,102.9l-21.5,109.3L287.5,185c2.1-0.3,32.3-56.9,32.3-56.9S353.4,84.1,370.9,102.9z"/>
	<g>
		<path class="st6" d="M347.1,104.7c40.3-21.5,34.8-16.2,69.7-16.2c19,0,69.5,21.3,76.2,39.1c6.3,16.8,1.6,45.4,2.3,48.2l-20.1-6.1
			l-3.3,199.1L312.7,363c0,0,19.9-159.5,20.6-185.5C333.3,176,344.5,106.1,347.1,104.7z"/>
	</g>
	<polygon class="st7" points="468.3,142.2 394.1,365.3 470.8,367.6 	"/>
	<g>
		<g>
			<g>
				<polygon class="st1" points="377.8,60.3 376.3,91.1 386.4,121.3 418.9,87.2 413.1,59.8 				"/>
			</g>
		</g>
		<path class="st1" d="M410.7,60.5c0,0-23.6,37.4-33.4,19.6c-2.8-5.1-7.7-22.5-7.7-22.5s41.2,1,41.4,1.2"/>
	</g>
	<g>
		<g>
			
				<rect x="401.9" y="206.2" transform="matrix(0.9653 -0.261 0.261 0.9653 -40.6876 113.1105)" class="st8" width="7.2" height="7.2"/>
			<path class="st9" d="M370.5,162.5l-25.8,7c-1.4,0.3-3-0.5-3.3-1.9l-0.7-2.6c-0.3-1.4,0.5-3,1.9-3.3l25.8-7c1.4-0.3,3,0.5,3.3,1.9
				l0.7,2.6C372.8,160.6,371.9,162.2,370.5,162.5z"/>
			<path class="st10" d="M354.1,153.6l-0.7,0.2c-3,0.9-4.7,3.8-3.8,6.8v0.2l11.4-3.1v-0.2C360,154.6,357.1,152.9,354.1,153.6z
				 M354.8,157.6c-0.7,0.2-1.2-0.2-1.4-0.9c-0.2-0.7,0.2-1.2,0.9-1.4c0.7-0.2,1.2,0.2,1.4,0.9C355.8,156.7,355.3,157.4,354.8,157.6z
				"/>
			<path class="st11" d="M415.6,250.4l-65.7,17.8c-1.7,0.5-3.7-0.5-4-2.3l-25.2-92.7c-0.5-1.7,0.5-3.7,2.3-4l65.7-17.8
				c1.7-0.5,3.7,0.5,4,2.3l25.2,92.7C418.4,248.1,417.3,249.8,415.6,250.4z"/>
			
				<rect x="347.4" y="163" transform="matrix(0.9653 -0.261 0.261 0.9653 -30.9987 99.0898)" class="st10" width="20.3" height="6.5"/>
			<path class="st8" d="M373.1,161.8l-31.1,8.4l-1.4-5.2c-0.3-1.4,0.5-3,1.9-3.3l25.8-7c1.4-0.3,3,0.5,3.3,1.9L373.1,161.8z"/>
		</g>
	</g>
	<path class="st1" d="M293.5,186.3c0,0-28.1,38.1-18.3,65.3c9.6,27.2,145-6.8,145-6.8l-68.3-40.7l-21.1-0.9l-17.3-6.5L293.5,186.3z"
		/>
	<polygon class="st12" points="401.4,249.7 393.7,247.2 349.4,212.3 328.8,205 382.6,251.9 	"/>
	<path class="st1" d="M365.6,225.7c0,0,101.3,75.5,129.6,49.8c24.6-38.8-3.1-134-3.1-134l-43.7,18c0,0,0.7,45.8-2.4,44.5
		c-3.3-1.2-81-2.6-81-2.6s-13.3-15.9-36.2,3.5L365.6,225.7z"/>
	<path class="st12" d="M423.6,261c20.4,2.6,45.4-2.4,56.2-21.8c6.8-12.2,7-27.8,6.1-41.2c-1-15.7-4-31.1-5.6-46.8
		c-0.2-1-0.3-1.7-0.9-2.4l15.2-8.2c0,0,25.3,96.2,0.7,135c-14,12.8-45.9,0.5-74.6-14.8C421.7,260.8,422.6,260.8,423.6,261z"/>
	<path class="st6" d="M514.1,239c-8.2-39.1-11.2-111.3-36.3-134.1c-11.5-10.5-39.5-10.7-48.7-9.3c-5.1,0.7,4.7,0,5.8,4.9l10.1,103.2
		L514.1,239z"/>
	<g>
		<path class="st13" d="M371,20.9c1,1.6,2.6,3.3,4.4,4c3.7,1.4,12.2,3.3,16.4,0.3c4-3,7.7-3,8.9-2.3l9.3,29.2l-0.7,0.3l0.5,1
			l9.3-4.9l-5.6,1.9c6.8-22,11.2-32.8,6.3-39.1c5.4-11.9-12.4-25.2-21.7-18.5c-5.6-9.3-13.6-3.1-20.3,1.4
			c-24.5-8.4-20.1,23.6-8.9,28.8C369.8,25.1,369.5,19.6,371,20.9z M414,49.9l-2.1,1c1.4-1.4,3-2.1,4-2.4L414,49.9z"/>
		<path class="st1" d="M410.7,48.8c0.3,0.7,1.2,1,1.9,0.3c1.9-1.9,5.9-4.5,7.3,3.1c1.9,10.3-9.1,8.6-10,10c-1.7,2.8-4,7.5-11.5,12.9
			c-4,2.8-13.1,5.6-23.2,2.3c-7.5-2.4-11.2-28.3-5.8-61c0,0,2.6,4.9,6.3,6.1c3.8,1.2,10.5-1,14.7-2.1c3.5-0.9,10-4,14.3-0.9
			C407.4,21,408.9,44.3,410.7,48.8z"/>
		<path class="st14" d="M418.4,51.6l-5.9,4.4C412.4,56,414.7,45.5,418.4,51.6z"/>
		<g>
			<path class="st13" d="M396.5,39.2c1.9,1.4-1-4.7-3.7-5.4c-2.6-0.7-5.2,0.5-5.8,2.8C387.1,36.6,392,36.1,396.5,39.2z"/>
			<path class="st13" d="M372.1,39.4c-2.4,0.9-1.4-2.3,0.7-3.7c2.8-1.2,5.8-0.5,6.8,1.9C379.6,37.5,373.7,38.7,372.1,39.4z"/>
			<path class="st14" d="M382.7,45.3l-3,8.4c0,0.2,0,0.3,0.2,0.3l3.7,0.2c0.2,0,0.2-0.2,0.2-0.3l-0.5-8.6
				C383.1,45.1,382.7,45,382.7,45.3z"/>
			<ellipse class="st13" cx="389" cy="47.4" rx="1" ry="2.3"/>
			<path class="st13" d="M378.2,47.6c0,1.2,0.5,2.3,1,2.3c0.5,0,1-1,1-2.3c0-1.2-0.5-2.3-1-2.3C378.7,45.3,378.2,46.4,378.2,47.6z"
				/>
			<path class="st15" d="M376.3,57.2c0,0,12.2,0.3,13.8,0.2c0,0-4.7,7.2-8.9,6.8C377.1,63.8,376.3,57.2,376.3,57.2z"/>
		</g>
	</g>
	<path class="st16" d="M366.8,53.7c0,0,0.7,16.8,5.8,21.8c5.1,5.1,23.4,5.1,31.4-5.4c7.9-10.5,11.4-9.1,11.4-9.1s-9.6,3.5-11.7,3.8
		c-1.9,0.3-5.9-7-3.8-9.1c2.1-2.1,14.7-8.2,14.7-8.2S398.6,54,393,54c-1.7,0-8.2-7.5-16.8-1.7C369.1,57.2,366.8,53.7,366.8,53.7z"/>
	<g>
		<path class="st17" d="M371.9,91.6c0,1.7,12.2,39.5,12.2,39.5l41.2-41.2"/>
		<rect x="405.1" y="170" class="st17" width="28.5" height="6.5"/>
	</g>
</g>
</svg>
