<svg xmlns="http://www.w3.org/2000/svg" width="254.587" height="254.928" viewBox="0 0 254.587 254.928">
  <defs>
    <style>
      .cls-1 {
        fill: #000038;
      }
    </style>
  </defs>
  <g id="Actions_Operations_send--alt_20" data-name="Actions / Operations / send--alt / 20" transform="translate(-2.965 -2.954)">
    <path id="Fill" class="cls-1" d="M159.16,254.928a10.67,10.67,0,0,1-9.563-6.7l-40.768-101.97L6.859,105.475a10.627,10.627,0,0,1,0-19.873L240.537.644a10.627,10.627,0,0,1,11.116,2.43,10.641,10.641,0,0,1,2.229,11.145L168.9,247.9a10.684,10.684,0,0,1-9.779,7.018Zm6.212-180.572h0l14.955,14.955-50.791,50.906,29.623,74.346L226.4,28.369,40.265,95.6l73.928,30.055,51.179-51.28Z" transform="translate(2.965 2.954)"/>
  </g>
</svg>
