<svg xmlns="http://www.w3.org/2000/svg" xmlns:xlink="http://www.w3.org/1999/xlink" width="312.6" height="930.25" viewBox="0 0 312.6 930.25">
  <defs>
    <style>
      .cls-1 {
        fill: #fff;
      }

      .cls-2 {
        fill: url(#linear-gradient);
      }

      .cls-3 {
        fill: #000038;
      }

      .cls-4 {
        fill: #6c63ff;
        opacity: 0.1;
      }

      .cls-5 {
        fill: #ffb0b1;
      }

      .cls-6 {
        opacity: 0.03;
      }

      .cls-7 {
        fill: #591d4b;
      }

      .cls-8 {
        fill: #be8b87;
      }
    </style>
    <linearGradient id="linear-gradient" x1="0.7" y1="-0.442" x2="0.7" y2="0.557" gradientUnits="objectBoundingBox">
      <stop offset="0" stop-color="gray" stop-opacity="0.251"/>
      <stop offset="0.54" stop-color="gray" stop-opacity="0.122"/>
      <stop offset="1" stop-color="gray" stop-opacity="0.102"/>
    </linearGradient>
  </defs>
  <g id="Groupe_20" data-name="Groupe 20" transform="translate(7417 -1341.4)">
    <g id="Groupe_21" data-name="Groupe 21" transform="translate(-8593.799 1486.578)">
      <path id="Tracé_220" data-name="Tracé 220" class="cls-1" d="M883.3,347.6s-2.4,5-7.2,4.2-4.8,18-4.8,18-3.2,3-5.4.4-8,6.2-8,6.2L821.6,378s16.2,7.4,13,29.8c0,0,54.9-3.4,56.7-8.6S883.3,347.6,883.3,347.6Z" transform="translate(441.979)"/>
      <g id="Groupe_19" data-name="Groupe 19" transform="translate(-0.002)">
        <path id="Tracé_203" data-name="Tracé 203" class="cls-2" d="M999.7,471.7s-16.5-82.1-10.2-92.4c0,0,.2-9.5-.2-21.6v-1.4a39.709,39.709,0,0,0,3.5,2,27.5,27.5,0,0,0,18.9,2.4l-5-5.6a9.571,9.571,0,0,1-2.7-4.5c-.3-1.7.5-3.3,1.1-4.9,4.8-12,5-27.1-4.2-36.3-7.7-7.7-9.6-17.6-18-24.7-6.1-5.1-9.5-12.7-12.7-20-2.7-6.2-5.4-12.4-6.9-18.9-1.2-5.1-1.7-10.4-3.3-15.4s-4.7-9.8-9.6-12.1c-1.7-.8-3.6-1.2-5.2-2.3-2.1-1.4-3.3-3.6-4.8-5.6-7.6-10-32.9-4.1-44.9,0a25.036,25.036,0,0,0-8.9,4.9l.1-.2a2.19,2.19,0,0,0,.3-.5,17.765,17.765,0,0,0-3.4,3.8c-1.8,2.8-2.5,6-3.9,9-1.8,3.5-11.5,13.5-7.3,17.5a2.076,2.076,0,0,0,1,.6,8.563,8.563,0,0,0,5,.5l-.2.4a29.69,29.69,0,0,0,28.1,40.9,32.754,32.754,0,0,0,9.3-1.4c.1.4.1.8.2,1.1a1.086,1.086,0,0,0,.1.5h0l-.5.7-.1-.1L899.6,310c-2.4,1.7-16.2,11.7-17,19.2-.8,8.2-1.6,17.8-1.6,17.8l-.1,2.1a6.08,6.08,0,0,1-5,1.4c-4.9-.8-4.9,18-4.9,18s-3.3,3-5.5.4-8.2,6.2-8.2,6.2l-37.1,1.6h-.8l-2-6.2a2.617,2.617,0,0,0-3.3-1.7c-.2.1-.3.1-.5.2l-.1.1-.3.2-.1.1-.2.2-.1.1-.1.1h0a2.491,2.491,0,0,0-.4,2.2l1.7,5.3c-7.2,1.4-14.5,5.5-8.5,16.7l-30.3-5.6,9.8,8.2L835.5,407c-.7,1.2-.2,2.9,1.9,5.4,9,10.6,25.4,13.4,32,14.2a53.063,53.063,0,0,0,6.5,11l-.6,10.5s-16.7,80.3-19.8,84.3a45.445,45.445,0,0,0,4.2-5.6c-4.8,16.5-11.6,39.1-13.4,42.4-2.9,5.4-5.5,27.3-2.3,28.7,1,.4,3.9.2,7.9-.1v1.8l-.2,68.6s.8,42.1-1.4,46.1-2.8,12.4-2.8,12.4-9,16.6-16.1,23.3c0,.1-.1.1-.2.1l-.2-1.6s-8.6,10.8-27.5,10.2c0,0-11.4,7.4,5.5,7.8s38.5-.6,38.5-.6,15.1-23,27.7-20v17.4h3.9V746a16.225,16.225,0,0,0,6.9-10.4,12.5,12.5,0,0,0-4.5-11.7,7.661,7.661,0,0,1-2.5-5.5l-.1.1c0-.3-.1-.7-.1-1.1-1.1-9-2.5-27.6,2.4-41.3,6.7-18.8,8.8-45.1,3.9-60.7a135.567,135.567,0,0,1-3.9-15.2q-.15-1.05-.3-1.8a82.629,82.629,0,0,1,9.9,2c11.3,3.1,36.2,3.7,57.4,3.5a11.014,11.014,0,0,0,.2,1.8,67.272,67.272,0,0,0,2.4,12.5c2.7,8,3.9,43.3,3.9,43.3s3.4,29,1.6,40.8c-1,6.6-2,13.2-2.6,19.8v.1s-5.6,16-9.7,24.7a4.883,4.883,0,0,0-.3.7,11.433,11.433,0,0,0-3.2.7s-5.5,11-11,12.8-3.7,7.8,8.8,5.6,31.2-4,31.2-4l.8-11.2,3.8-4.8-1,11.2,4.1-.8-.5-13.6,6.2-7.8s7.6-6.7-3.7-19.9v.3a2.088,2.088,0,0,0-.4-.6v-.1c-1.9-2.9-3.3-8.3-.6-17.8,4.9-17.2,7.8-32.8,7.8-32.8s10.9-41.9-2.2-61.7h.6a33.475,33.475,0,0,1-2.8-8.8c-.1-.4-.1-.7-.2-1.1,9.7-.6,19.3-2.3,27.1-6.1C1008.2,586.9,1003.6,487.5,999.7,471.7ZM876.1,402.4v.2l-2,.1Zm-6.8,1a3.555,3.555,0,0,0-.9.4,8.623,8.623,0,0,0-1.6,4.1l-3.1-.7s-2.2-.5-5.3-1l-1.5-1.5C861,404.4,865.2,403.9,869.3,403.4Z" transform="translate(436.6 2.272)"/>
        <g id="Groupe_18" data-name="Groupe 18">
          <path id="Tracé_204" data-name="Tracé 204" class="cls-3" d="M972.5,743.5l-1.2,14.2,4-.8-.6-15.4Z" transform="translate(438.2 4.072)"/>
          <g id="Groupe_17" data-name="Groupe 17">
            <ellipse id="Ellipse_13" data-name="Ellipse 13" class="cls-4" cx="121.6" cy="15.7" rx="121.6" ry="15.7" transform="translate(1212 753.672)"/>
            <g id="Groupe_16" data-name="Groupe 16">
              <path id="Tracé_205" data-name="Tracé 205" class="cls-5" d="M881.5,676.3c-4.8,13.7-3.5,32.2-2.4,41.2.4,3.3.8,5.3.8,5.3s-7.2,16.4-7.8,17S850.9,753,850.9,753l-14.4,8.4s-14.6-6.4-7.6-8.6a12.249,12.249,0,0,0,3.8-2.6c7-6.7,15.8-23.2,15.8-23.2s.6-8.4,2.8-12.4,1.4-45.9,1.4-45.9l.2-68.3v-8.9l27.3.2a69.372,69.372,0,0,0,1.2,9c1,5.1,2.3,10.2,3.8,15.2C890.1,631.4,888.1,657.5,881.5,676.3Z" transform="translate(441.979)"/>
              <g id="Groupe_13" data-name="Groupe 13" transform="translate(440 0.2)">
                <path id="Tracé_207" data-name="Tracé 207" class="cls-3" d="M879.4,718.4l-41.2,37.1-4.8.2-1-7s-8.4,10.8-27,10.2c0,0-11.2,7.4,5.4,7.8s37.7-.6,37.7-.6,14.8-23,27.2-20v17.4h3.8V746a15.589,15.589,0,0,0,6.7-10.4,12.749,12.749,0,0,0-4.4-11.7A7.512,7.512,0,0,1,879.4,718.4Z"/>
                <path id="Tracé_208" data-name="Tracé 208" class="cls-5" d="M976.3,697.6c-2.7,9.5-1.2,14.8.6,17.7v.1a32.55,32.55,0,0,1,4.8,11.7l.2.9-18.8,27.3-10.2,4s-16.4-5.6-13.4-7.2c.8-.4,1.9-2.5,3.3-5.3,4-8.7,9.5-24.6,9.5-24.6V722c.6-6.6,1.5-13.2,2.5-19.7,1.8-11.8-1.5-40.7-1.5-40.7s-1.2-35.1-3.8-43.1a58.871,58.871,0,0,1-2.3-12.4c-.5-5-.7-9.1-.7-9.1s10.8-15,30.5,1.2a19.453,19.453,0,0,1,4.1,4.5c13.7,19.4,2.7,62.2,2.7,62.2S981.1,680.4,976.3,697.6Z"/>
                <path id="Tracé_210" data-name="Tracé 210" class="cls-3" d="M954,753.9s-5-9.2-14.6-5.8c0,0-5.4,11-10.8,12.8s-3.6,7.8,8.6,5.6,30.5-4,30.5-4l.8-11.2,12.4-15.8s7.4-6.7-3.6-19.9v2.3s2.2,9-.4,10.4-14.1,24.2-14.1,24.2Z"/>
                <path id="Tracé_213" data-name="Tracé 213" class="cls-3" d="M982.3,603.4s-70.1,3.4-91.4-2.6-42.5-.8-45.7-2.2-.6-23.2,2.2-28.5,18.2-59.9,18.2-59.9l14.8-77.1,15.6-4.3,1.1-.3,27.1-7.5,19.9-5.5s39.5,154.3,36.1,165.7a30.321,30.321,0,0,0-.6,13.4,30.91,30.91,0,0,0,2.7,8.8Z"/>
                <path id="Tracé_216" data-name="Tracé 216" class="cls-5" d="M941.9,281.8s-1.6,1.6-4.1,3.9c-3.5,3.3-8.7,8.1-13.3,12.1-6.4,5.6-11.7,9.7-9.8,6.2s1.5-9.6.6-15.3c-.1-.4-.1-.8-.2-1.1a107.011,107.011,0,0,0-3.1-12.4s10.3-13.4,16.1-18.6c2.1-2,3.6-2.8,3.7-1.4.1,1.9,1.5,6,3.2,10.4a.758.758,0,0,0,.2.4c1.2,3,2.5,6.1,3.6,8.7C940.5,278.7,941.9,281.8,941.9,281.8Z"/>
                <path id="Tracé_219" data-name="Tracé 219" class="cls-3" d="M930,331.9,924,421l-.6,9.4-26.5-1.6-1-.1-20-1.2,1.3-47.6,5.4-24L895.9,321l7.9-11.5,9.4-13.6,2.5-3.5s1.7,10.2,7.8,5.7l.1-.1h0C929.8,294.2,930,331.9,930,331.9Z"/>
                <path id="Tracé_221" data-name="Tracé 221" class="cls-6" d="M883.3,347.6s-2.4,5-7.2,4.2-4.8,18-4.8,18-3.2,3-5.4.4-8,6.2-8,6.2l-23.855,1.051-3.989.176L821.6,378s16.2,7.4,13,29.8c0,0,54.9-3.4,56.7-8.6S883.3,347.6,883.3,347.6Z"/>
                <path id="Tracé_222" data-name="Tracé 222" class="cls-1" d="M777.7,389.8l9.5,8.1,78.9,16.6-9.8-10Z"/>
                <path id="Tracé_223" data-name="Tracé 223" class="cls-1" d="M913.4,298.5c-1.3,2-5.1,12.2-8.2,21.2-2.6,7.5-4.8,14-4.8,14s-5.1,33.1-7.7,39.1-1.2,29.4-1.2,29.4l-9.7,57.7s-4.4,29.8-11.2,47.5c-6.7,17.5-14.1,25.7-14.4,26,3-4.1,19.3-84,19.3-84l5.4-100.8s.8-9.6,1.6-17.8,17-19.4,17-19.4l15.6-22.2C916.9,291.3,915.8,294.9,913.4,298.5Z"/>
                <path id="Tracé_224" data-name="Tracé 224" class="cls-5" d="M872.7,428.1s-23-1-34.1-14.4,25.8-5.3,25.8-5.3l9.6,2.2Z"/>
                <path id="Tracé_226" data-name="Tracé 226" class="cls-1" d="M1005.8,587.4c-27.3,13.6-77.1,1-77.1,1-5,4.6-18.2,11.4-18.2,11.4l-7.2-89c-4.6-12-6.4-74.9-6.4-74.9s5.8-46.9,8.2-51.7c.7-1.4.4-3.5-.5-5.7a72.185,72.185,0,0,1-4.4-33.5l1.9-16.3.5-4.6c9.4-4.2,16.6-17.6,16.6-17.6l5-8.8,9.2-16.1,4.4-7.6.7.7,5.7,5.1,6,5c7.8,6.6,21.4,18.2,28.3,25.3,6.1,6.3,8.1,30.6,8.6,48.9.4,12.1.2,21.5.2,21.5-6.2,10.2,10,92,10,92C1001.3,488.4,1005.8,587.4,1005.8,587.4Z"/>
                <path id="Tracé_229" data-name="Tracé 229" class="cls-1" d="M952.8,304.5s-18.8,35.7-16.6,49.3,8.4,29,5.4,32.5a10.894,10.894,0,0,1-8.8,4.4c-3,.2-11,5.8-11,6.4s-7.4.6-14,3.4-16.4,4.4-16.4,4.4-19-.6-20.8,1.2-3.6,12.6.2,21.2,8,15,11.2,16.2,23.4-5.6,39.7-7.2,34.1-14.6,34.1-14.6,19.6-7,23-18.8-4.1-76.5-4.1-76.5S968.9,296.4,952.8,304.5Z"/>
                <path id="Tracé_233" data-name="Tracé 233" class="cls-5" d="M822.2,378c-7.2.3-22.9,2.5-14.8,17.6,7.2,13.4,19.2,4.4,26-2.4A25.361,25.361,0,0,0,822.2,378Z"/>
                <path id="Tracé_238" data-name="Tracé 238" class="cls-5" d="M935.6,259.3a29.6,29.6,0,1,1-12.8-24.4A29.6,29.6,0,0,1,935.6,259.3Z"/>
                <path id="Tracé_240" data-name="Tracé 240" class="cls-7" d="M880.2,229.4c1.4-2.9,2.1-6.2,3.8-8.9,2.5-4,6.9-6.6,11.4-8.1,11.8-4,36.6-9.9,44,0,1.5,2,2.7,4.2,4.7,5.6a39.49,39.49,0,0,0,5.1,2.3c4.7,2.2,7.8,7.1,9.4,12s2.1,10.2,3.3,15.3c1.5,6.5,4.2,12.7,6.8,18.9,3.1,7.3,6.4,14.8,12.4,19.9,8.2,7,10,16.9,17.6,24.6,9,9.1,8.7,24.2,4.1,36.1-.6,1.6-1.3,3.2-1.1,4.9s1.5,3.2,2.7,4.5l4.9,5.5c-11.6,2.8-24.8-3.3-30.2-13.9-1.7-3.3-2.8-7.1-5.6-9.5-2.6-2.1-6-2.6-9.2-3.5-10.5-3.1-19.3-12.7-19.7-23.7-.2-5.1,1.5-10.3.7-15.4a17.718,17.718,0,0,0-3.3-8c-2.8-3.6-6.9-6-9.1-10-3.8-6.7-.9-15.4-3.6-22.6-.8-2.2-2.5-4.4-4.9-4.6s-4.4,1.8-6.6,2.6c-4.7,1.8-9.7-1.3-13.7-4.4s-8.3-6.8-13.3-6.1c-3.3.5-5.9,2.7-8.9,3.9-2.2.9-6.8,1.6-8.7-.3C868.9,242.8,878.4,232.9,880.2,229.4Z"/>
                <path id="Tracé_244" data-name="Tracé 244" class="cls-8" d="M822.6,400.7l-8.7-27.3a2.579,2.579,0,0,1,1.6-3.2h0a2.553,2.553,0,0,1,3.2,1.7l8.7,27.3-.9,5.7Z"/>
              </g>
            </g>
          </g>
        </g>
      </g>
    </g>
    <path id="Tracé_250" data-name="Tracé 250" class="cls-3" d="M705.9,51.4h-.8c-29.8,0-56.2,15.8-71.4,39.1-15.2-23.3-41.6-39.1-71.4-39.1h-.8a84.932,84.932,0,0,0-84.2,84.9c0,27.8,12.2,67.3,35.9,99.7,45.3,61.9,120.4,116,120.4,116S708.8,297.9,754,236c23.8-32.5,35.9-71.9,35.9-99.7a84.825,84.825,0,0,0-84-84.9ZM695.1,240.9a16.793,16.793,0,0,1-15.7-10.8H661.6a5.722,5.722,0,0,1-5.3-3.8l-5.5-16.5-17.3,60.6a5.58,5.58,0,0,1-5.4,4h-.3a5.546,5.546,0,0,1-5.2-4.6L604.7,162.3l-13.1,63.6a5.473,5.473,0,0,1-5.4,4.2H561.1a5.556,5.556,0,1,1-.5-11.1h21.2l18.5-85.5a5.615,5.615,0,0,1,11,.5l18.3,109.6,15.5-54.2a5.553,5.553,0,0,1,5.2-4h.1a5.586,5.586,0,0,1,5.3,3.8l9.9,29.8h13.6a16.792,16.792,0,1,1,15.9,21.9Z" transform="translate(-7894.3 1290)"/>
  </g>
</svg>
