<svg xmlns="http://www.w3.org/2000/svg" width="267.906" height="715.161" viewBox="0 0 267.906 715.161">
  <defs>
    <style>
      .cls-1 {
        fill: #bbe3f1;
        opacity: 0.24;
      }

      .cls-2 {
        fill: #f78c68;
      }

      .cls-3 {
        fill: #d17645;
      }

      .cls-4, .cls-6 {
        fill: #4d7368;
      }

      .cls-18, .cls-5 {
        fill: none;
        stroke: #fbfaf4;
      }

      .cls-17, .cls-18, .cls-5 {
        stroke-miterlimit: 10;
      }

      .cls-5 {
        stroke-width: 0.685px;
      }

      .cls-6 {
        opacity: 0.82;
      }

      .cls-7, .cls-8 {
        fill: #000038;
      }

      .cls-8 {
        opacity: 0.43;
      }

      .cls-9 {
        fill: #223666;
      }

      .cls-10 {
        fill: #3e84c2;
      }

      .cls-11 {
        fill: #506ca6;
      }

      .cls-12 {
        fill: #fcf4e3;
      }

      .cls-13 {
        fill: #ed864e;
      }

      .cls-14 {
        fill: #10192e;
      }

      .cls-15 {
        fill: #d34a28;
      }

      .cls-16 {
        fill: #fff;
      }

      .cls-17 {
        fill: #fbfbfb;
        stroke: #fbfbfb;
        stroke-width: 0.284px;
      }

      .cls-18 {
        stroke-width: 0.5px;
      }
    </style>
  </defs>
  <g id="Groupe_63" data-name="Groupe 63" transform="translate(-273.077 11.91)">
    <ellipse id="Ellipse_27" data-name="Ellipse 27" class="cls-1" cx="43.141" cy="6.986" rx="43.141" ry="6.986" transform="translate(320.903 689.279)"/>
    <ellipse id="Ellipse_28" data-name="Ellipse 28" class="cls-1" cx="43.141" cy="6.986" rx="43.141" ry="6.986" transform="translate(418.363 689.279)"/>
    <g id="Groupe_51" data-name="Groupe 51">
      <g id="Groupe_50" data-name="Groupe 50">
        <path id="Tracé_376" data-name="Tracé 376" class="cls-2" d="M457.137,656.618l7.685,42.442H529.97V694l-37.028-21.483-.7-15.2Z"/>
        <path id="Tracé_377" data-name="Tracé 377" class="cls-3" d="M492.942,672.512,486.3,647.885l-34.059,8.908Z"/>
        <path id="Tracé_378" data-name="Tracé 378" class="cls-4" d="M498.881,673.735s-5.589,0-30.216,4.366l-8.733-4.017v28.993l81.041-.349h0a10.981,10.981,0,0,0-5.763-10.13Z"/>
      </g>
    </g>
    <g id="Groupe_52" data-name="Groupe 52">
      <path id="Tracé_379" data-name="Tracé 379" class="cls-2" d="M357.407,656.618l-7.685,42.442H284.4V694l37.2-21.483.7-15.2Z"/>
      <path id="Tracé_380" data-name="Tracé 380" class="cls-3" d="M321.6,672.512l.7-15.2,33.185-1.4Z"/>
      <path id="Tracé_381" data-name="Tracé 381" class="cls-4" d="M315.489,673.735s5.589,0,30.216,4.366l8.733-4.017v28.993l-81.042-.349h0a10.982,10.982,0,0,1,5.764-10.13Z"/>
    </g>
    <g id="Groupe_53" data-name="Groupe 53">
      <path id="Tracé_382" data-name="Tracé 382" class="cls-4" d="M457.661,278.132l36.5,380.058-51.7,1.223-38.6-241.379c-3.144-9.781-13.973-9.606-17.466,0L363.869,658.365l-46.983-1.223s-9.257-216.053,18.863-390.887Z"/>
      <line id="Ligne_6" data-name="Ligne 6" class="cls-5" x1="19.038" y2="330.455" transform="translate(334.352 321.797)"/>
      <line id="Ligne_7" data-name="Ligne 7" class="cls-5" x1="38.949" y1="329.931" transform="translate(429.366 324.766)"/>
      <path id="Tracé_383" data-name="Tracé 383" class="cls-6" d="M324.4,362.842,473.031,440.39l-6.637-73.706Z"/>
    </g>
    <path id="Tracé_384" data-name="Tracé 384" class="cls-7" d="M370.856,102.949,349.373,212.286l-61.83-27.247c2.1-.349,32.312-56.939,32.312-56.939S353.39,84.086,370.856,102.949Z"/>
    <g id="Groupe_54" data-name="Groupe 54">
      <path id="Tracé_385" data-name="Tracé 385" class="cls-7" d="M347.1,104.7c40.346-21.483,34.757-16.243,69.689-16.243,19.038,0,69.514,21.308,76.151,39.123,6.288,16.767,1.572,45.412,2.271,48.206l-20.086-6.113L471.808,368.78l-159.114-5.764s19.911-159.463,20.61-185.487C333.3,175.957,344.482,106.093,347.1,104.7Z"/>
    </g>
    <path id="Tracé_386" data-name="Tracé 386" class="cls-8" d="M468.315,142.248l-74.23,223.039,76.675,2.271Z"/>
    <g id="Groupe_57" data-name="Groupe 57">
      <g id="Groupe_56" data-name="Groupe 56">
        <g id="Groupe_55" data-name="Groupe 55">
          <path id="Tracé_387" data-name="Tracé 387" class="cls-2" d="M377.842,60.333l-1.572,30.74,10.13,30.216L418.887,87.23l-5.764-27.421Z"/>
        </g>
      </g>
      <path id="Tracé_388" data-name="Tracé 388" class="cls-2" d="M410.678,60.507S387.1,97.884,377.318,80.069c-2.8-5.065-7.685-22.531-7.685-22.531s41.22,1.048,41.394,1.223"/>
    </g>
    <g id="Groupe_59" data-name="Groupe 59">
      <g id="Groupe_58" data-name="Groupe 58">
        <rect id="Rectangle_67" data-name="Rectangle 67" class="cls-9" width="7.161" height="7.161" transform="matrix(0.965, -0.261, 0.261, 0.965, 401.112, 207.217)"/>
        <path id="Tracé_389" data-name="Tracé 389" class="cls-10" d="M370.506,162.508l-25.849,6.986a2.789,2.789,0,0,1-3.319-1.921l-.7-2.62a2.787,2.787,0,0,1,1.921-3.318l25.849-6.987a2.788,2.788,0,0,1,3.319,1.922l.7,2.619a2.789,2.789,0,0,1-1.921,3.319Z"/>
        <path id="Tracé_390" data-name="Tracé 390" class="cls-11" d="M354.088,153.6l-.7.175a5.48,5.48,0,0,0-3.843,6.812v.174l11.353-3.143v-.175a5.77,5.77,0,0,0-6.81-3.843Zm.7,4.018a1.165,1.165,0,1,1,.873-1.4,1.309,1.309,0,0,1-.874,1.4Z"/>
        <path id="Tracé_391" data-name="Tracé 391" class="cls-12" d="M415.568,250.361,349.9,268.177a3.164,3.164,0,0,1-4.018-2.271l-25.15-92.744a3.163,3.163,0,0,1,2.27-4.017l65.672-17.815a3.163,3.163,0,0,1,4.017,2.27l25.151,92.744a3.236,3.236,0,0,1-2.274,4.017Z"/>
        <rect id="Rectangle_68" data-name="Rectangle 68" class="cls-11" width="20.26" height="6.462" transform="matrix(0.965, -0.261, 0.261, 0.965, 346.939, 165.776)"/>
        <path id="Tracé_392" data-name="Tracé 392" class="cls-9" d="M373.126,161.809l-31.089,8.384-1.4-5.24a2.787,2.787,0,0,1,1.921-3.318l25.849-6.987a2.788,2.788,0,0,1,3.319,1.922Z"/>
      </g>
    </g>
    <path id="Tracé_393" data-name="Tracé 393" class="cls-2" d="M293.482,186.262s-28.12,38.075-18.339,65.322c9.606,27.247,144.966-6.812,144.966-6.812l-68.291-40.7-21.134-.873-17.291-6.463Z"/>
    <path id="Tracé_394" data-name="Tracé 394" class="cls-13" d="M401.421,249.663l-7.685-2.445-44.363-34.932-20.61-7.336,53.795,46.983Z"/>
    <path id="Tracé_395" data-name="Tracé 395" class="cls-2" d="M365.616,225.735s101.3,75.452,129.6,49.777c24.627-38.774-3.144-133.963-3.144-133.963L448.4,159.539s.7,45.76-2.445,44.538c-3.319-1.223-81.042-2.62-81.042-2.62s-13.274-15.894-36.154,3.493Z"/>
    <path id="Tracé_396" data-name="Tracé 396" class="cls-13" d="M423.6,261.016c20.435,2.62,45.411-2.446,56.24-21.833,6.812-12.226,6.986-27.77,6.113-41.219-1.048-15.72-4.017-31.09-5.589-46.809a5.113,5.113,0,0,0-.873-2.445l15.2-8.209s25.325,96.237.7,135.011c-13.972,12.75-45.935.524-74.579-14.846C421.681,260.841,422.555,260.841,423.6,261.016Z"/>
    <path id="Tracé_397" data-name="Tracé 397" class="cls-7" d="M514.076,239.009c-8.209-39.124-11.178-111.258-36.329-134.138-11.528-10.48-39.473-10.655-48.73-9.257-5.065.7,4.716,0,5.764,4.89l10.13,103.223Z"/>
    <g id="Groupe_61" data-name="Groupe 61">
      <path id="Tracé_398" data-name="Tracé 398" class="cls-14" d="M371.03,20.86a10.727,10.727,0,0,0,4.367,4.017c3.668,1.4,12.226,3.318,16.418.349,4.017-2.969,7.685-2.969,8.907-2.27l9.257,29.168-.7.349.524,1.048,9.256-4.891-5.589,1.922c6.812-22.007,11.179-32.836,6.288-39.124,5.415-11.877-12.4-25.151-21.658-18.514-5.589-9.257-13.623-3.144-20.26,1.4-24.452-8.383-20.086,23.579-8.908,28.819C369.808,25.051,369.458,19.637,371.03,20.86ZM414,49.853,411.9,50.9a10.289,10.289,0,0,1,4.018-2.445Z"/>
      <path id="Tracé_399" data-name="Tracé 399" class="cls-2" d="M410.678,48.805a1.153,1.153,0,0,0,1.921.349c1.921-1.921,5.939-4.541,7.336,3.144,1.921,10.305-9.082,8.559-9.956,9.956a37.178,37.178,0,0,1-11.527,12.925c-4.017,2.794-13.1,5.589-23.23,2.27-7.51-2.445-11.178-28.295-5.764-60.956,0,0,2.62,4.891,6.288,6.113,3.843,1.223,10.48-1.048,14.672-2.1,3.493-.873,9.955-4.017,14.322-.873C407.359,21.034,408.931,44.264,410.678,48.805Z"/>
      <path id="Tracé_400" data-name="Tracé 400" class="cls-15" d="M418.363,51.6l-5.939,4.366S414.7,45.487,418.363,51.6Z"/>
      <g id="Groupe_60" data-name="Groupe 60">
        <path id="Tracé_401" data-name="Tracé 401" class="cls-14" d="M396.531,39.2c1.921,1.4-1.048-4.716-3.668-5.415s-5.24.524-5.764,2.8a15.263,15.263,0,0,1,9.432,2.62Z"/>
        <path id="Tracé_402" data-name="Tracé 402" class="cls-14" d="M372.078,39.373c-2.445.874-1.4-2.27.7-3.667,2.794-1.223,5.764-.524,6.812,1.921A39.056,39.056,0,0,0,372.078,39.373Z"/>
        <path id="Tracé_403" data-name="Tracé 403" class="cls-15" d="M382.732,45.312,379.763,53.7c0,.174,0,.349.175.349l3.668.174c.174,0,.174-.174.174-.349l-.524-8.558C383.082,45.137,382.732,44.963,382.732,45.312Z"/>
        <ellipse id="Ellipse_29" data-name="Ellipse 29" class="cls-14" cx="1.048" cy="2.271" rx="1.048" ry="2.271" transform="translate(387.972 45.137)"/>
        <path id="Tracé_404" data-name="Tracé 404" class="cls-14" d="M378.191,47.582c0,1.223.524,2.271,1.048,2.271s1.048-1.048,1.048-2.271-.524-2.27-1.048-2.27S378.191,46.36,378.191,47.582Z"/>
        <path id="Tracé_405" data-name="Tracé 405" class="cls-16" d="M376.27,57.189s12.226.349,13.8.174c0,0-4.716,7.161-8.907,6.812C377.143,63.826,376.27,57.189,376.27,57.189Z"/>
      </g>
    </g>
    <path id="Tracé_406" data-name="Tracé 406" class="cls-17" d="M366.839,53.695s.7,16.768,5.763,21.833,23.4,5.065,31.439-5.415c7.859-10.479,11.353-9.082,11.353-9.082s-9.607,3.493-11.7,3.843c-1.921.349-5.938-6.987-3.842-9.083s14.671-8.209,14.671-8.209-15.894,6.463-21.483,6.463c-1.746,0-8.209-7.511-16.767-1.747C369.109,57.189,366.839,53.695,366.839,53.695Z"/>
    <g id="Groupe_62" data-name="Groupe 62">
      <path id="Tracé_407" data-name="Tracé 407" class="cls-18" d="M371.9,91.6c0,1.747,12.226,39.473,12.226,39.473L425.349,89.85"/>
      <rect id="Rectangle_69" data-name="Rectangle 69" class="cls-18" width="28.469" height="6.462" transform="translate(405.089 170.018)"/>
    </g>
  </g>
</svg>
